{"title":"Pain.and.Gain.2013.BRRip.XviD.AC3.1400MB-TST","uid":8802920,"size":1466789888,"categoryP":"video","categoryS":"movies","magnet":"?xt=urn:btih:b7bf2e73f50873fb7108961af5b943b3de6a208c&amp;dn=Pain.and.Gain.2013.BRRip.XviD.AC3.1400MB-TST&amp;tr=udp%3A%2F%2Ftracker.openbittorrent.com%3A80&amp;tr=udp%3A%2F%2Fopen.demonii.com%3A1337&amp;tr=udp%3A%2F%2Ftracker.coppersurfer.tk%3A6969&amp;tr=udp%3A%2F%2Fexodus.desync.com%3A6969","seeders":5,"leechers":0,"uploader":"Helliod","files":1,"time":1376254142,"description":"IMDb: http://www.imdb.com/title/tt1980209/\n\n\nPain.and.Gain.2013.BRRip.XviD.AC3.1400MB-TST.avi\n\nFormat : AVI\nFormat/Info : Audio Video Interleave\nFile size : 1.37 GiB\nDuration : 2h 9mn\nOverall bit rate : 1 509 Kbps\nWriting application : VirtualDubMod 1.5.10.2 (build 2540/release)\nWriting library : VirtualDubMod build 2540/release\n\nVideo\nID : 0\nFormat : MPEG-4 Visual\nFormat profile : Advanced Simple@L5\nFormat settings, BVOP : 2\nFormat settings, QPel : No\nFormat settings, GMC : No warppoints\nFormat settings, Matrix : Default (MPEG)\nCodec ID : XVID\nCodec ID/Hint : XviD\nDuration : 2h 9mn\nBit rate : 1 116 Kbps\nWidth : 720 pixels\nHeight : 304 pixels\nDisplay aspect ratio : 2.35:1\nFrame rate : 23.976 fps\nColor space : YUV\nChroma subsampling : 4:2:0\nBit depth : 8 bits\nScan type : Progressive\nCompression mode : Lossy\nBits/(Pixel*Frame) : 0.213\nStream size : 1.01 GiB (74%)\nWriting library : XviD 1.2.1 (UTC 2008-12-04)\n\nAudio\nID : 1\nFormat : AC-3\nFormat/Info : Audio Coding 3\nMode extension : CM (complete main)\nCodec ID : 2000\nDuration : 2h 9mn\nBit rate mode : Constant\nBit rate : 384 Kbps\nChannel(s) : 6 channels\nChannel positions : Front: L C R, Side: L R, LFE\nSampling rate : 48.0 KHz\nBit depth : 16 bits\nCompression mode : Lossy\nStream size : 356 MiB (25%)\nAlignment : Split accross interleaves\nInterleave, duration : 42 ms (1.00 video frame)\nInterleave, preload duration : 500 ms\n","torrent":{"xt":"urn:btih:b7bf2e73f50873fb7108961af5b943b3de6a208c","amp;dn":"Pain.and.Gain.2013.BRRip.XviD.AC3.1400MB-TST","amp;tr":["udp%3A%2F%2Ftracker.openbittorrent.com%3A80","udp%3A%2F%2Fopen.demonii.com%3A1337","udp%3A%2F%2Ftracker.coppersurfer.tk%3A6969","udp%3A%2F%2Fexodus.desync.com%3A6969"],"infoHash":"b7bf2e73f50873fb7108961af5b943b3de6a208c","infoHashBuffer":{"type":"Buffer","data":[183,191,46,115,245,8,115,251,113,8,150,26,245,185,67,179,222,106,32,140]},"announce":[],"urlList":[]}}